<?xml version="1.0" encoding="UTF-8"?>
<svg version="1.1" xmlns="http://www.w3.org/2000/svg" width="400" height="400">
<path d="M0 0 C29.37 0 58.74 0 89 0 C89 131.01 89 262.02 89 397 C59.63 397 30.26 397 0 397 C0 265.99 0 134.98 0 0 Z " fill="#E3E3E3" transform="translate(156,3)"/>
<path d="M0 0 C29.04 0 58.08 0 88 0 C88 90.09 88 180.18 88 273 C58.96 273 29.92 273 0 273 C0 182.91 0 92.82 0 0 Z " fill="#E3E3E3" transform="translate(311,127)"/>
<path d="M0 0 C29.04 0 58.08 0 88 0 C88 65.67 88 131.34 88 199 C58.96 199 29.92 199 0 199 C0 133.33 0 67.66 0 0 Z " fill="#E3E3E3" transform="translate(2,201)"/>
</svg>
